<svg width="187" height="27" viewBox="0 0 187 27" fill="none" xmlns="http://www.w3.org/2000/svg">
<path d="M147.336 19.976C148.866 19.976 150.654 20.3564 152.162 21.408L152.46 21.6276L152.665 21.7799C153.704 22.5237 154.979 22.9635 156.371 22.9635V26.8033L155.929 26.7939C153.735 26.7009 151.72 25.9179 150.101 24.658C148.659 23.5356 146.013 23.5356 144.57 24.658C142.843 26.0019 140.666 26.8033 138.301 26.8033V22.9635C139.785 22.9635 141.137 22.4636 142.212 21.6276L142.509 21.408C144.017 20.3564 145.806 19.976 147.336 19.976ZM162.696 16.7229C162.696 13.307 159.894 10.4831 156.371 10.4831C154.979 10.4832 153.704 10.9229 152.665 11.6667L152.46 11.8191C150.894 13.0375 148.968 13.4706 147.336 13.4706C145.806 13.4706 144.017 13.0902 142.509 12.0386L142.212 11.8191C141.137 10.983 139.785 10.4832 138.301 10.4831C134.777 10.4831 131.976 13.307 131.976 16.7229C131.976 20.1389 134.777 22.9635 138.301 22.9635V26.8033L138.038 26.8002C132.633 26.6644 128.276 22.3435 128.139 16.9831L128.136 16.7229C128.136 11.1561 132.687 6.64331 138.301 6.64331L138.742 6.65269C140.937 6.7457 142.951 7.52873 144.57 8.78861C145.968 9.876 148.495 9.90981 149.963 8.89017L150.101 8.78861C151.828 7.44471 154.005 6.64334 156.371 6.64331L156.633 6.64644C162.126 6.78443 166.536 11.243 166.536 16.7229L166.533 16.9831C166.394 22.43 161.897 26.8033 156.371 26.8033V22.9635C159.894 22.9635 162.696 20.1389 162.696 16.7229Z" fill="#1E1E1E"/>
<path d="M182.707 10.1606L182.258 10.2643V0H186.163V24.8832H182.638L182.362 22.7405C181.763 23.4086 181.002 23.9731 180.081 24.4339C179.159 24.8947 178.065 25.1251 176.798 25.1251C175.254 25.1251 173.895 24.7565 172.72 24.0192C171.568 23.2819 170.669 22.2451 170.024 20.9088C169.379 19.5725 169.056 18.0173 169.056 16.2432C169.056 14.4691 169.379 12.9139 170.024 11.5776C170.669 10.2413 171.568 9.20448 172.72 8.4672C173.895 7.72992 175.254 7.36128 176.798 7.36128C178.157 7.36128 179.344 7.63776 180.357 8.19072C181.371 8.72064 182.154 9.37728 182.707 10.1606ZM173.238 16.2432C173.238 17.833 173.653 19.1232 174.482 20.1139C175.312 21.1046 176.394 21.6 177.731 21.6C178.537 21.6 179.274 21.3926 179.943 20.9779C180.634 20.5632 181.187 19.9642 181.601 19.1808C182.039 18.3744 182.258 17.3952 182.258 16.2432C182.258 15.0912 182.039 14.1235 181.601 13.3402C181.187 12.5338 180.634 11.9232 179.943 11.5085C179.274 11.0938 178.537 10.8864 177.731 10.8864C176.394 10.8864 175.312 11.3818 174.482 12.3725C173.653 13.3632 173.238 14.6534 173.238 16.2432Z" fill="#1E1E1E"/>
<path d="M98.8442 7.60325H102.369L102.646 9.22757C103.222 8.65157 103.902 8.20229 104.685 7.87973C105.468 7.53413 106.321 7.36133 107.242 7.36133C108.394 7.36133 109.431 7.60325 110.353 8.08709C111.274 8.54789 112.023 9.22757 112.599 10.1261C113.198 9.22757 114.016 8.54789 115.053 8.08709C116.09 7.60325 117.207 7.36133 118.405 7.36133C119.765 7.36133 120.94 7.64933 121.93 8.22533C122.944 8.77829 123.727 9.60773 124.28 10.7136C124.833 11.7965 125.11 13.1559 125.11 14.7917V24.8832H121.17V15.3101C121.17 13.8586 120.859 12.7642 120.237 12.0269C119.638 11.2896 118.751 10.921 117.576 10.921C116.378 10.921 115.445 11.3012 114.776 12.0615C114.108 12.7988 113.774 13.9047 113.774 15.3792V24.8832H109.869V15.3101C109.869 13.8586 109.581 12.7642 109.005 12.0269C108.452 11.2896 107.588 10.921 106.413 10.921C105.215 10.921 104.305 11.3012 103.683 12.0615C103.061 12.7988 102.75 13.8932 102.75 15.3447V24.8832H98.8442V7.60325Z" fill="#1E1E1E"/>
<path d="M87.1794 25.1252C85.4514 25.1252 83.9308 24.745 82.6175 23.9847C81.3273 23.2244 80.3135 22.1645 79.5762 20.8052C78.862 19.4458 78.5049 17.8791 78.5049 16.105C78.5049 14.4231 78.862 12.9255 79.5762 11.6122C80.2905 10.2989 81.2812 9.26213 82.5484 8.50181C83.8156 7.74149 85.2556 7.36133 86.8684 7.36133C88.5042 7.36133 89.9442 7.71845 91.1884 8.43269C92.4326 9.14693 93.4002 10.1492 94.0914 11.4394C94.8057 12.7066 95.1628 14.1812 95.1628 15.8631C95.1628 16.1396 95.1513 16.4391 95.1282 16.7616C95.1052 17.0612 95.0706 17.3837 95.0246 17.7293H82.7212C82.8364 18.5357 83.0898 19.2384 83.4815 19.8375C83.8962 20.4135 84.4146 20.8628 85.0367 21.1853C85.6588 21.5079 86.373 21.6692 87.1794 21.6692C88.1471 21.6692 89.0111 21.4733 89.7714 21.0816C90.5548 20.69 91.0962 20.1716 91.3958 19.5264L94.8172 20.6669C94.126 22.0493 93.1007 23.1437 91.7414 23.9501C90.382 24.7335 88.8614 25.1252 87.1794 25.1252ZM90.9119 14.5498C90.8889 13.8356 90.693 13.1904 90.3244 12.6144C89.9558 12.0384 89.4719 11.5892 88.8729 11.2666C88.2738 10.921 87.6057 10.7482 86.8684 10.7482C86.2233 10.7482 85.6127 10.9095 85.0367 11.232C84.4607 11.5546 83.9654 12.0039 83.5506 12.5799C83.159 13.1328 82.9055 13.7895 82.7903 14.5498H90.9119Z" fill="#1E1E1E"/>
<path d="M59.9307 0H63.8359V9.19296C64.3889 8.64 65.0686 8.20224 65.875 7.87968C66.6814 7.53408 67.5799 7.36128 68.5707 7.36128C69.8609 7.36128 70.9899 7.64928 71.9575 8.22528C72.9483 8.77824 73.7086 9.60768 74.2385 10.7136C74.7915 11.7965 75.0679 13.1558 75.0679 14.7917V24.8832H71.0244V15.3101C71.0244 13.8586 70.7249 12.7642 70.1259 12.0269C69.5499 11.2896 68.6743 10.921 67.4993 10.921C66.3012 10.921 65.3911 11.3011 64.7691 12.0614C64.147 12.8218 63.8359 13.9277 63.8359 15.3792V24.8832H59.9307V0Z" fill="#1E1E1E"/>
<path d="M48.5488 7.60329V2.76489H52.5232V7.60329V11.0247V18.6971C52.5232 19.7339 52.7191 20.4596 53.1108 20.8743C53.5024 21.266 54.0093 21.4849 54.6314 21.531C55.2765 21.554 55.9216 21.5195 56.5667 21.4273V24.7451C55.576 24.9524 54.5968 25.01 53.6291 24.9179C52.6845 24.8487 51.832 24.5953 51.0717 24.1575C50.3114 23.6967 49.7008 23.0286 49.24 22.1531C48.7792 21.2775 48.5488 20.1255 48.5488 18.6971V11.0247V7.60329Z" fill="#1E1E1E"/>
<path d="M28.1382 7.60325H31.6633L31.9398 9.29669C32.5158 8.69765 33.1955 8.22533 33.9788 7.87973C34.7852 7.53413 35.6492 7.36133 36.5708 7.36133C37.9302 7.36133 39.0937 7.64933 40.0614 8.22533C41.0521 8.77829 41.8124 9.60773 42.3423 10.7136C42.8723 11.7965 43.1372 13.1559 43.1372 14.7917V24.8832H39.2319V15.3101C39.2319 13.8586 38.9324 12.7642 38.3334 12.0269C37.7574 11.2896 36.8819 10.921 35.7068 10.921C34.5087 10.921 33.5987 11.3012 32.9766 12.0615C32.3545 12.7988 32.0435 13.8932 32.0435 15.3447V24.8832H28.1382V7.60325Z" fill="#1E1E1E"/>
<path d="M45.5757 9.70972L55.9888 5.41478L57.3091 8.6157L46.8959 12.9106L45.5757 9.70972Z" fill="#1E1E1E"/>
<path d="M21.3943 13.44C21.3943 8.51674 17.4032 4.52568 12.48 4.52568C7.55678 4.52568 3.56571 8.51674 3.56571 13.44C3.56571 18.3632 7.55678 22.3542 12.48 22.3542C17.4032 22.3542 21.3943 18.3632 21.3943 13.44ZM24.96 13.44C24.96 20.3325 19.3725 25.92 12.48 25.92C5.58749 25.92 0 20.3325 0 13.44C0 6.54745 5.58749 0.959961 12.48 0.959961C19.3725 0.959961 24.96 6.54745 24.96 13.44Z" fill="#1E1E1E"/>
</svg>
