<svg width="24" height="24" viewBox="0 0 24 24" fill="none" xmlns="http://www.w3.org/2000/svg">
<path d="M18.7463 4C19.5764 3.99995 20.3751 4.31755 20.9785 4.88767C21.5819 5.45779 21.9443 6.23719 21.9913 7.066L21.9963 7.25V16.75C21.9963 17.5801 21.6787 18.3788 21.1086 18.9822C20.5385 19.5856 19.7591 19.948 18.9303 19.995L18.7463 20H10.2453C9.48313 20.0003 8.74513 19.7327 8.16027 19.244L8.00527 19.105L3.01027 14.355C2.38581 13.7611 2.02279 12.9435 2.00104 12.082C1.97928 11.2205 2.30058 10.3856 2.89427 9.761L3.01027 9.645L8.00527 4.895C8.55755 4.36993 9.27678 4.05562 10.0373 4.007L10.2463 4H18.7473H18.7463ZM11.4423 8.397C11.2978 8.28948 11.1194 8.23755 10.9398 8.25069C10.7602 8.26384 10.5913 8.3412 10.464 8.46862C10.3367 8.59603 10.2595 8.76501 10.2465 8.94465C10.2335 9.12429 10.2856 9.30261 10.3933 9.447L10.4663 9.53L12.9363 12L10.4663 14.47L10.3933 14.554C10.2857 14.6985 10.2338 14.8769 10.247 15.0565C10.2601 15.2361 10.3375 15.405 10.4649 15.5323C10.5923 15.6596 10.7613 15.7368 10.9409 15.7498C11.1206 15.7628 11.2989 15.7107 11.4433 15.603L11.5263 15.53L13.9963 13.061L16.4663 15.531L16.5503 15.603C16.6948 15.7105 16.8731 15.7625 17.0528 15.7493C17.2324 15.7362 17.4013 15.6588 17.5286 15.5314C17.6559 15.404 17.7331 15.235 17.7461 15.0554C17.759 14.8757 17.7069 14.6974 17.5993 14.553L17.5263 14.47L15.0573 12L17.5273 9.53L17.5993 9.446C17.7068 9.3015 17.7587 9.12314 17.7456 8.94351C17.7324 8.76388 17.6551 8.59498 17.5277 8.46768C17.4002 8.34039 17.2313 8.26319 17.0516 8.25022C16.872 8.23724 16.6937 8.28934 16.5493 8.397L16.4663 8.47L13.9963 10.939L11.5263 8.469L11.4423 8.397Z" fill="currentColor"/>
</svg>
