<svg width="24" height="24" viewBox="0 0 24 24" fill="none" xmlns="http://www.w3.org/2000/svg">
<path d="M19.0808 4.03681L19.1656 4.03201L19.2696 4.03841L19.3416 4.05121L19.44 4.07921L19.5256 4.11601L19.6056 4.16161L19.6776 4.21521L19.7432 4.27521L19.7848 4.32241L19.8504 4.41521L19.892 4.49201C19.9293 4.57201 19.9533 4.65628 19.964 4.74481L19.968 4.82961C19.968 4.88988 19.9616 4.94855 19.9488 5.00561L19.9208 5.10401L14.6952 19.5656C14.5961 19.7813 14.4373 19.964 14.2374 20.092C14.0376 20.2201 13.8053 20.2881 13.568 20.288C13.3543 20.2885 13.1441 20.2337 12.9578 20.129C12.7715 20.0243 12.6155 19.8732 12.5048 19.6904L12.4528 19.5888L9.77117 14.2272L4.43518 11.5584C4.23774 11.4681 4.06747 11.3276 3.94139 11.1508C3.81532 10.9741 3.73787 10.7673 3.71678 10.5512L3.71198 10.432C3.71198 9.98401 3.95278 9.57441 4.38478 9.33601L4.49678 9.28001L18.9104 4.07521L18.9952 4.05121L19.0808 4.03681Z" fill="currentColor"/>
</svg>
