<svg width="24" height="24" viewBox="0 0 24 24" fill="none" xmlns="http://www.w3.org/2000/svg">
<path d="M20.1818 12C20.1818 7.48131 16.5187 3.81818 12 3.81818C7.48131 3.81818 3.81818 7.48131 3.81818 12C3.81818 16.5187 7.48131 20.1818 12 20.1818C16.5187 20.1818 20.1818 16.5187 20.1818 12ZM22 12C22 17.5228 17.5228 22 12 22C6.47715 22 2 17.5228 2 12C2 6.47715 6.47715 2 12 2C17.5228 2 22 6.47715 22 12Z" fill="currentColor"/>
<path d="M11 11C11 11.5523 10.5523 12 10 12C9.44772 12 9 11.5523 9 11C9 10.4477 9.44772 10 10 10C10.5523 10 11 10.4477 11 11Z" fill="currentColor"/>
<path d="M15 11C15 11.5523 14.5523 12 14 12C13.4477 12 13 11.5523 13 11C13 10.4477 13.4477 10 14 10C14.5523 10 15 10.4477 15 11Z" fill="currentColor"/>
<path d="M12.0001 15C11.1683 15 10.5616 14.6416 10.24 14.4811C10.2026 14.4625 10.1714 14.4481 10.1459 14.4366C9.92266 14.6686 9.55827 14.7114 9.28561 14.5215C8.9836 14.3111 8.90927 13.8956 9.1196 13.5935C9.33267 13.2876 9.64447 13.061 10.061 13.061C10.3825 13.061 10.6735 13.2074 10.8354 13.2882C11.2332 13.4866 11.5432 13.6667 12.0001 13.6667C12.4254 13.6667 12.6698 13.4849 13.0645 13.255C13.2264 13.1607 13.532 12.9846 13.8988 13.0011C14.3237 13.0202 14.6339 13.2735 14.8607 13.5665C15.0859 13.8576 15.0323 14.2763 14.7412 14.5017C14.45 14.7269 14.0313 14.6736 13.806 14.3825L13.7982 14.3728C13.7806 14.3822 13.7594 14.3929 13.7354 14.4069C13.4522 14.5719 12.8633 15 12.0001 15Z" fill="currentColor"/>
</svg>
