<svg width="16" height="16" viewBox="0 0 16 16" fill="none" xmlns="http://www.w3.org/2000/svg">
<path d="M9.99996 8.66665V3.33331C9.99996 2.80288 9.78925 2.29417 9.41417 1.9191C9.0391 1.54403 8.53039 1.33331 7.99996 1.33331C7.46953 1.33331 6.96082 1.54403 6.58575 1.9191C6.21067 2.29417 5.99996 2.80288 5.99996 3.33331V8.66665C5.44027 9.08641 5.02685 9.67164 4.81825 10.3394C4.60965 11.0072 4.61645 11.7237 4.83768 12.3874C5.05892 13.0511 5.48337 13.6284 6.05092 14.0375C6.61848 14.4465 7.30035 14.6666 7.99996 14.6666C8.69957 14.6666 9.38144 14.4465 9.94899 14.0375C10.5165 13.6284 10.941 13.0511 11.1622 12.3874C11.3835 11.7237 11.3903 11.0072 11.1817 10.3394C10.9731 9.67164 10.5596 9.08641 9.99996 8.66665ZM7.99996 2.66665C8.17677 2.66665 8.34634 2.73688 8.47136 2.86191C8.59639 2.98693 8.66663 3.1565 8.66663 3.33331V5.33331H7.33329V3.33331C7.33329 3.1565 7.40353 2.98693 7.52855 2.86191C7.65358 2.73688 7.82315 2.66665 7.99996 2.66665Z" fill="#1E1E1E" fill-opacity="0.4"/>
</svg>
